<?xml version="1.0" encoding="utf-8"?>
<!-- Generator: Adobe Illustrator 13.0.1, SVG Export Plug-In . SVG Version: 6.00 Build 14948)  -->
<!DOCTYPE svg PUBLIC "-//W3C//DTD SVG 1.1//EN" "http://www.w3.org/Graphics/SVG/1.1/DTD/svg11.dtd">
<svg version="1.1" id="Vrstva_1" xmlns="http://www.w3.org/2000/svg" xmlns:xlink="http://www.w3.org/1999/xlink" x="0px" y="0px"
	 width="188.659px" height="127.095px" viewBox="0 0 188.659 127.095" enable-background="new 0 0 188.659 127.095"
	 xml:space="preserve">
<path fill-rule="evenodd" clip-rule="evenodd" fill="#575756" d="M107.904,42.03h-1.51c-0.083-0.185-0.159-0.428-0.229-0.749
	c-0.06,0.272-0.063,0.524-0.024,0.749h-1.436c-0.095-0.974,0.488-1.889,1.278-2.065C107.832,39.554,108.272,41.133,107.904,42.03
	 M100.53,28.781h4.498c-0.04,0.486-0.353,0.943-0.641,1.327l-0.027,0.038l-0.023,0.023c-0.753,1.005,0.237,1.44,0.968,0.291
	l0.028-0.038c0.355-0.476,0.574-1.059,0.599-1.642h2.212v5.166h-6.341C100.547,32.671,99.975,30.72,100.53,28.781z M91.014,20.574
	h7.605c-4.228,2.561-7.016,7.337-6.713,10.228c1.178-4.644,5.351-8.763,10.02-10.046c0.771,0.078,1.512,0.389,1.902,0.917
	c-0.026-0.301-0.134-0.447-0.16-0.749c1.287,0.615,1.56,2.195,0.321,2.503c0.104-0.103,0.138-0.075,0.228-0.382
	c0.089-0.307-0.224-0.895-0.6-1.015c-1.236-0.395-1.37,1.108-0.633,1.728c0.76,0.639,1.605,0.069,1.956-0.31
	c0.683-0.736,0.598-2.205-0.876-2.874h1.129c0.253,0.057,0.503,0.12,0.752,0.186l0.563,0.188c0.762,0.304,1.465,0.719,2.094,1.223
	v3.567H98.061v3.044h1.216c-0.482,2.156-0.108,3.887,0.768,5.166h-1.983v2.918h10.756v5.166h-0.315
	c0.264-0.944-0.326-2.295-1.745-2.593c-2.147-0.451-3.174,0.986-2.935,2.593H90.006V22.721
	C90.418,22.028,90.761,21.308,91.014,20.574z M78.942,23.711v-3.137h7.744C85.271,22.677,82.209,23.888,78.942,23.711z
	 M87.178,26.138V42.03h-8.236c0-4.35,0-8.555,0-12.86c2.336-0.432,4.922-0.661,6.422-1.634
	C85.988,27.132,86.598,26.661,87.178,26.138z M87.178,24.596v0.007c-1.473,2.31-4.742,3.422-8.236,3.316v-0.797
	C82.182,27.353,85.272,26.664,87.178,24.596z M87.178,21.344v1.61c-0.221,0.188-0.457,0.369-0.713,0.542
	c-2.619,1.765-5.111,2.275-7.523,2.069v-0.991c1.388,0.059,2.707-0.067,3.832-0.303C84.76,23.855,86.245,22.723,87.178,21.344z
	 M71.056,20.204c1.182,0.007,2.227,0.093,3.138,0.247c0.952,0.165,1.797,0.307,2.534,0.428v2.5
	C74.641,22.864,72.612,21.786,71.056,20.204z M66.608,20.703c0.494-0.124,1.003-0.225,1.527-0.303l0.032,0.016l-0.016-0.019
	c0.408-0.06,0.826-0.107,1.253-0.139c1.05,1.055,2.225,1.97,3.44,2.662c1.229,0.7,2.558,1.146,3.883,1.399v0.864
	C73.264,24.309,69.942,22.255,66.608,20.703z M63.093,22.12c0.523-0.304,1.07-0.572,1.639-0.804c3.371,1.851,6.373,3.578,8.34,4.434
	c-0.155-0.008-0.31-0.012-0.462-0.012c-0.449,0-0.876,0.028-1.282,0.083C68.678,24.589,65.901,23.071,63.093,22.12z M58.286,33.7
	c-0.164-0.843-0.245-1.745-0.245-2.707c0-0.647,0.044-1.267,0.132-1.859c0.544,0.338,1.258,0.357,1.864,0.118l0.033-0.013
	c0.976-0.302,0.856-1.103-0.019-0.757l-0.022,0.012l-0.033,0.013c-0.479,0.19-1.077,0.388-1.527-0.016l-0.012-0.011l-0.011-0.01
	c-0.044-0.04-0.085-0.084-0.124-0.131c0.236-1.043,0.621-1.995,1.156-2.853c0.046-0.009,0.093-0.017,0.141-0.023
	c2.65-0.146,4.707,2.225,4.025,4.717l-0.009,0.034l-0.01,0.034l-0.009,0.034l-0.01,0.022l-0.01,0.034l-0.01,0.023
	C62.917,32.808,60.606,33.999,58.286,33.7z M76.789,41.535c-0.798,0.227-1.74,0.427-2.825,0.601
	c-1.088,0.174-2.112,0.261-3.075,0.261c-3.75,0-6.828-0.979-9.235-2.935c-0.193-0.157-0.379-0.32-0.556-0.488l0.027-0.001
	l-1.194-1.335c-0.043-0.061-0.085-0.122-0.127-0.184c5.975-0.112,7.685-4.751,5.839-7.564c0.641,4.923-2.879,7.101-6.385,6.65
	c-0.338-0.649-0.605-1.349-0.802-2.099c2.737,0.288,5.016-1.218,5.804-3.253c1.046-2.7-0.476-6.316-4.117-6.628
	c0.456-0.555,0.985-1.064,1.588-1.526c0.14-0.107,0.282-0.211,0.425-0.313c1.382,0.347,2.623,0.878,3.518,1.368
	c1.372,0.752,2.75,1.468,4.141,2.101c-0.62,0.229-1.174,0.545-1.661,0.947c-1.127,0.931-1.692,2.258-1.692,3.98
	c0,1.783,0.539,3.155,1.615,4.12c1.076,0.962,2.495,1.443,4.258,1.443c0.737,0,1.47-0.072,2.198-0.215
	c0.241-0.047,0.486-0.102,0.735-0.164c0.504,0.205,1.027,0.272,1.521,0.213V41.535z M55.942,33.699
	c-0.016,0.509-0.055,0.995-0.118,1.457c-1.233-0.918-2.223-2.272-2.683-4.054C53.774,32.195,54.724,33.094,55.942,33.699z
	 M55.95,23.049v9.829c-1.64-0.99-2.774-2.717-2.994-4.644l-0.024-0.444l0-0.075C53.209,25.72,54.219,23.956,55.95,23.049z
	 M42.734,33.298c0,1.129,0.189,2.004,0.567,2.629c0.38,0.625,1.038,0.937,1.983,0.937c1.006,0,1.689-0.295,2.06-0.891
	c0.367-0.594,0.554-1.475,0.554-2.643V20.574h8.052v1.068c-4.167,1.176-6.663,5.212-4.961,11.04c0.708,2.427,2.224,4.09,4.114,5.097
	c-0.458,1.016-1.103,1.843-1.934,2.482c-1.855,1.424-4.512,2.136-7.975,2.136c-3.239,0-5.833-0.711-7.777-2.136
	c-1.948-1.425-2.921-3.643-2.921-6.655v-0.38c1.509,2.422,3.929,4.716,7.414,6.639c-3.241-2.845-6.649-5.575-7.414-10.147v-0.894
	l2.285,1.689c-0.767-4.392-0.308-7.586,0.877-9.94h4.572c0.161,0.164,0.33,0.304,0.504,0.423V33.298z M20.302,20.574h1.96v2.388
	C21.35,22.438,20.728,21.621,20.302,20.574z M14.025,38.793v-2.225c0.101-0.005,0.201,0,0.303,0.02l0.018,0.003l0.01,0.005
	l0.018,0.003l0.018,0.003l0.018,0.003l0.01,0.005l0.018,0.003l0.01,0.006c0.692,0.127,1.163,1.177,0.836,1.771l-0.006,0.01
	l-0.005,0.01c-0.213,0.388-0.672,0.396-1.048,0.381l-0.026-0.001l-0.018-0.003C14.124,38.786,14.072,38.788,14.025,38.793z
	 M16.503,42.03h-2.478v-2.749c0.089,0.024,0.198,0.038,0.325,0.033l0.026,0.001c0.673,0.026,1.373-0.357,1.505-1.081l0.003-0.018
	c0.254-1.39-0.8-2.246-1.859-2.279v-2.559c2.122,0.034,4.342,1.316,4.983,3.523c0.405,1.779-0.315,3.697-1.838,4.749l-0.021,0.015
	C16.943,41.808,16.727,41.93,16.503,42.03z M19.256,42.03h-1.732c1.374-0.985,2.098-2.39,2.132-3.884
	C19.916,39.36,19.804,40.721,19.256,42.03z M14.025,20.574h5.746c0.362,1.438,1.103,2.798,2.491,3.553v11.568h10.113v6.335H19.822
	c1.61-3.831,0.07-9.499-5.797-9.749V20.574z"/>
<path fill="#575756" d="M99.314,8.082h2.805l3.655,5.372V8.082h2.829v9.711h-2.829l-3.638-5.332v5.332h-2.822V8.082z M92.585,5.513
	h2.317l-2.139,1.981h-1.291L92.585,5.513z M90.619,12.957c0,0.981,0.181,1.685,0.545,2.114c0.364,0.428,0.861,0.643,1.487,0.643
	c0.645,0,1.145-0.211,1.497-0.629c0.353-0.42,0.531-1.173,0.531-2.259c0-0.916-0.186-1.583-0.554-2.005
	c-0.369-0.421-0.868-0.631-1.502-0.631c-0.604,0-1.09,0.212-1.456,0.642C90.801,11.259,90.619,11.969,90.619,12.957z M87.616,12.943
	c0-1.585,0.443-2.819,1.325-3.701c0.884-0.884,2.113-1.325,3.689-1.325c1.617,0,2.862,0.434,3.737,1.302
	c0.873,0.866,1.312,2.083,1.312,3.645c0,1.135-0.191,2.066-0.574,2.792c-0.382,0.726-0.934,1.291-1.655,1.696
	c-0.724,0.405-1.62,0.606-2.699,0.606c-1.095,0-2.001-0.174-2.72-0.522c-0.717-0.351-1.299-0.902-1.746-1.657
	C87.839,15.023,87.616,14.078,87.616,12.943z M78.945,8.082h3.002v7.319h4.683v2.393h-7.685V8.082z M73.74,14.089l-1.074-3.491
	l-1.067,3.491H73.74z M74.368,16.19H70.95l-0.471,1.604h-3.066l3.649-9.711h3.272l3.651,9.711h-3.141L74.368,16.19z M58.073,14.58
	l2.855-0.178c0.061,0.463,0.188,0.816,0.377,1.06c0.308,0.394,0.751,0.588,1.325,0.588c0.427,0,0.757-0.099,0.99-0.301
	c0.231-0.201,0.346-0.434,0.346-0.699c0-0.25-0.108-0.477-0.33-0.676c-0.222-0.199-0.733-0.387-1.538-0.563
	c-1.316-0.296-2.254-0.688-2.815-1.178c-0.565-0.491-0.848-1.115-0.848-1.874c0-0.5,0.145-0.973,0.434-1.416
	c0.29-0.443,0.724-0.792,1.305-1.047c0.581-0.253,1.377-0.38,2.388-0.38c1.241,0,2.189,0.23,2.84,0.692
	c0.651,0.461,1.038,1.196,1.163,2.202l-2.829,0.165c-0.074-0.437-0.233-0.755-0.475-0.954c-0.24-0.197-0.572-0.296-0.995-0.296
	c-0.35,0-0.613,0.073-0.789,0.222c-0.177,0.147-0.265,0.328-0.265,0.541c0,0.154,0.073,0.292,0.217,0.416
	c0.143,0.129,0.477,0.247,1.009,0.357c1.311,0.283,2.25,0.57,2.817,0.859c0.567,0.29,0.981,0.647,1.239,1.077
	c0.258,0.427,0.389,0.906,0.389,1.438c0,0.622-0.174,1.196-0.518,1.721c-0.344,0.526-0.826,0.924-1.445,1.196
	c-0.617,0.271-1.397,0.407-2.338,0.407c-1.651,0-2.795-0.316-3.43-0.955C58.516,16.369,58.156,15.562,58.073,14.58z"/>
<path fill-rule="evenodd" clip-rule="evenodd" fill="#FFF38C" d="M136.658,79.644c-14.889,1.94-15.228-18.179-2.091-21.563
	c-2.648,1.532-4.636,4.142-5.485,7.598c-1.328,5.402,1.443,10.071,5.336,11.58c4.716,1.827,11.054-0.887,11.452-7.341
	c0.191-3.104-3.231-6.225-6.843-4.165l-0.038,0.021c-1.509,0.861-1.816,2.721-1.231,4.201l0.022,0.057
	c0.521,1.683,1.903,1.477,1.307-0.033l-0.021-0.037l-0.022-0.057c-0.327-0.826-0.669-1.857,0.028-2.635l0.019-0.021l0.018-0.02
	c1.069-1.193,3.779-0.967,4.603,0.479l0.021,0.018l0.021,0.038l0.021,0.018l0.021,0.038l0.021,0.036l0.021,0.037l0.021,0.019
	l0.021,0.038c0.231,0.407,0.35,0.837,0.418,1.304c0.25,4.571-3.839,8.119-8.139,6.943l-0.059-0.015l-0.058-0.017l-0.06-0.016
	l-0.038-0.018l-0.059-0.017l-0.04-0.017c-4.687-1.282-6.702-6.055-5.495-10.467l0.016-0.058c1.153-4.217,4.867-7.325,9.148-7.813
	l0.767-0.042l0.129,0.002c4.067,0.563,7.579,2.894,8.75,6.958c1.549,5.38-0.64,11.636-2.493,15.019
	c-3.419,6.243-6.426,12.571-7.43,19.133c-3.261-7.7-9.114-6.794-10.867-5.723c-4.958,3.031-3.806,9.515,1.362,9.836
	c3.773,0.235,5.521-4.4,2.562-5.95c-2.015-1.056-4.926-0.398-3.957,3.01c-1.597-0.688-2.285-2.021-1.038-3.921
	c1.342-2.042,2.892-2.181,4.2-2.178c7.927,0.015,5.618,14.203,9.221,19.763c5.813,8.971,19.619,16.487,27.384,3.963
	c1.701-2.743,2.024-9.633-1.75-12.286c-4.171-2.932-7.509-2.216-10.131,0.555c7.337-2.001,11.315,0.015,10.086,8.648
	c-0.903,6.341-12.658,9.866-18.619,1.019c-8.457-12.55-0.221-23.403,4.85-34.319c8.388-13.997,13.452-29.363,12.47-36.234
	c-3.309-23.521-30.774-33.097-45.558-6.307c5.249-5.98,10.271-12.291,19.198-12.998c-1.022,1.384-2.045,2.767-3.067,4.15
	c13.898-2.427,20.846,2.26,24.646,8.757c-2.53-1.659-5.206-0.961-6.253-0.321c-4.433,2.71-3.417,8.229,1.202,8.517
	c3.375,0.21,4.936-3.935,2.291-5.32c-1.802-0.944-4.404-0.357-3.538,2.69c-1.428-0.614-2.043-1.807-0.928-3.505
	c1.199-1.826,2.585-1.946,3.755-1.947c3.43-0.003,6.208,5.629,6.415,8.54c0.719,12.953-17.238,38.601-19.988,46.766
	c-2.749,8.164-2.786,17.823,2.636,22.79c-5.745-3.619-7.229-13.653-4.338-22.061c2.319-6.742,7.196-14.165,9.237-21.657
	c3.409-12.516-4.631-22.897-18.877-18.739c-8.157,2.381-11.308,10.044-10.852,17.483c0.872-0.78,1.745-1.56,2.618-2.34
	C123.77,79.866,131.794,82.834,136.658,79.644"/>
<path fill-rule="evenodd" clip-rule="evenodd" fill="#F1CB18" d="M153.001,84.002c5.477-11.604,11.715-23.394,13.059-33.546
	c1.046-7.896-1.027-15.419-4.041-19.375c-5.367-7.045-15.347-12.253-16.335-19.637c-1.428-10.67,8.226-11.817,13.354-11.363
	c-6.972,0.672-11.718,2.741-11.552,9.981c0.004,0.177,0.014,0.352,0.028,0.525c1.506-4.375,5.505-6.923,10.323-6.171
	c4.305,0.672,6.807,4.082,6.755,7.35c-0.065,4.07-3.397,8.049-8.761,6.056c-2.282-0.849-3.521-4.214-0.942-6.2l0.027-0.021
	c1.078-0.83,2.514-0.49,3.405,0.38l0.035,0.033c1.058,0.884,0.493,1.82-0.419,0.933l-0.02-0.025l-0.034-0.034
	c-0.498-0.485-1.14-1.043-1.914-0.773l-0.02,0.006l-0.02,0.007c-1.184,0.412-1.837,2.438-1.043,3.468l0.007,0.021l0.021,0.027
	l0.007,0.019l0.021,0.027l0.021,0.027l0.021,0.026l0.007,0.02l0.021,0.027c0.223,0.291,0.498,0.505,0.814,0.695
	c3.227,1.561,7.025-0.323,7.473-3.783l0.006-0.047l0.007-0.047l0.006-0.047l-0.001-0.033l0.006-0.047v-0.035
	c0.489-3.771-2.35-6.667-5.899-7.127l-0.049-0.007c-3.394-0.439-6.76,1.305-8.403,4.25l-0.263,0.542
	c-2.387,5.847,9.04,12.096,15.806,21.461c3.422,4.738,4.938,11.159,4.323,16.926c-0.936,8.767-4.887,18.116-10.156,28.785
	c8.125-8.229,30.656-3.625,24.977,17.605c-2.289,8.557-13.763,11.615-20.695,7.921c-4.53-2.415-5.873-5.914-6.162-8.816
	c-0.481-4.836,3.067-8.158,6.331-8.248c6.566-0.181,6.118,7.332,0.034,8.071c3.32-2.032,3.415-3.289,3.055-4.481
	c-1.197-3.962-9.845-1.669-6.939,6.479c3.833,10.753,24.179,7.985,21.79-8.024C178.528,70.732,161.457,76.599,153.001,84.002"/>
<path fill-rule="evenodd" clip-rule="evenodd" fill="#F1CB18" d="M168.092,92.696c4.636,5.857,13.251-3.577,8.929-9.37
	c-7.515-10.068-22.515-1.489-28.341,8.743c-3.186,5.595-3.327,12.365-2.33,17.13c1.8,8.592,11.356,11.753,15.965,8.083
	c3.122-2.486,3.354-10.404-1.842-9.461c3.696,0.688,4.576,7.069,0.997,8.62c-9.038,3.914-15.17-5.308-14.055-15.059
	c1.099-9.597,9.267-19.718,22.517-16.837c-0.165-0.587-0.273-1.973-1.748-2.886C177.108,82.812,175.743,94.183,168.092,92.696"/>
<path fill-rule="evenodd" clip-rule="evenodd" fill="#F1CB18" d="M167.185,68.079c0.758,0.258,1.163,1.081,0.905,1.839
	c-0.259,0.758-1.082,1.163-1.84,0.904c-0.758-0.258-1.163-1.081-0.904-1.839C165.604,68.226,166.428,67.82,167.185,68.079"/>
<path fill-rule="evenodd" clip-rule="evenodd" fill="#F1CB18" d="M172.743,67.836c0.582,0.197,0.893,0.83,0.695,1.412
	c-0.198,0.582-0.831,0.893-1.413,0.694s-0.893-0.83-0.694-1.412S172.161,67.637,172.743,67.836"/>
<path fill-rule="evenodd" clip-rule="evenodd" fill="#F1CB18" d="M178.224,69.275c0.477,0.162,0.731,0.68,0.569,1.156
	s-0.68,0.73-1.156,0.568s-0.731-0.68-0.568-1.156C177.231,69.368,177.749,69.113,178.224,69.275"/>
<path fill-rule="evenodd" clip-rule="evenodd" fill="#F1CB18" d="M183.538,72.233c0.37,0.126,0.568,0.528,0.442,0.899
	s-0.529,0.569-0.9,0.442c-0.37-0.126-0.568-0.529-0.442-0.899C182.763,72.305,183.167,72.106,183.538,72.233"/>
<path fill-rule="evenodd" clip-rule="evenodd" fill="#F1CB18" d="M186.887,76.96c0.317,0.108,0.487,0.454,0.379,0.772
	c-0.108,0.317-0.454,0.487-0.771,0.379c-0.318-0.108-0.488-0.453-0.38-0.771C186.223,77.022,186.569,76.852,186.887,76.96"/>
<path fill-rule="evenodd" clip-rule="evenodd" fill="#F1CB18" d="M188.247,82.042c0.318,0.108,0.488,0.454,0.38,0.771
	c-0.108,0.318-0.454,0.488-0.772,0.38c-0.317-0.108-0.487-0.454-0.379-0.771C187.583,82.104,187.929,81.934,188.247,82.042"/>
<path fill-rule="evenodd" clip-rule="evenodd" fill="#F1CB18" d="M187.956,86.783c0.318,0.108,0.488,0.454,0.38,0.772
	c-0.108,0.317-0.454,0.487-0.771,0.379c-0.318-0.108-0.488-0.453-0.38-0.771S187.638,86.675,187.956,86.783"/>
<text transform="matrix(1 0 0 1 0 81.0654)" fill="#575756" font-family="'Arial-Black'" font-size="12">Lucie Baránk</text>
<text transform="matrix(1 0 0 1 86.2788 81.0654)" fill="#575756" font-family="'Arial-Black'" font-size="12">o</text>
<text transform="matrix(1 0 0 1 93.8726 81.0654)" fill="#575756" font-family="'Arial-Black'" font-size="12">vá</text>
<text transform="matrix(1 0 0 1 76.4819 90.5469)" fill="#575756" font-family="'Arial-BoldItalicMT'" font-size="7.525">majitelka</text>
<text transform="matrix(1 0 0 1 18.6841 106.209)" fill="#575756" font-family="'Arial-BoldMT'" font-size="8">V</text>
<text transform="matrix(1 0 0 1 23.5786 106.209)" fill="#575756" font-family="'Arial-BoldMT'" font-size="8">elká 12, 70100 Ostrava</text>
<text transform="matrix(1 0 0 1 44.25 115.1455)" fill="#575756" font-family="'Arial-BoldMT'" font-size="8">+420 606 243 030</text>
<text transform="matrix(1 0 0 1 16.6958 124.083)" fill="#575756" font-family="'Arial-BoldMT'" font-size="8">l.barankova@seznam.cz</text>
<text transform="matrix(1 0 0 1 58.5542 60.7822)" fill="#F1CB18" font-family="'Arial-BoldItalicMT'" font-size="9.504">kadeřnictví</text>
</svg>
